<svg width="14" height="14" viewBox="0 0 14 14" fill="none" xmlns="http://www.w3.org/2000/svg">
<path fill-rule="evenodd" clip-rule="evenodd" d="M1.94446 5.80903C1.94446 3.01693 4.20791 0.753479 7.00001 0.753479C9.79212 0.753479 12.0556 3.01693 12.0556 5.80903C12.0556 9.22153 7.63196 13.0764 7.41078 13.2407C7.17429 13.443 6.82574 13.443 6.58925 13.2407L6.5882 13.2398C6.38386 13.0627 1.94446 9.21548 1.94446 5.80903ZM3.20836 5.80903C3.20836 7.91973 5.65399 10.6434 7.00003 11.9073C8.34607 10.6497 10.7917 7.91973 10.7917 5.80903C10.7917 3.71496 9.09411 2.01737 7.00003 2.01737C4.90595 2.01737 3.20836 3.71496 3.20836 5.80903ZM7.00004 3.28126C5.60399 3.28126 4.47226 4.41298 4.47226 5.80903C4.47226 7.20509 5.60399 8.33681 7.00004 8.33681C8.39609 8.33681 9.52782 7.20509 9.52782 5.80903C9.52782 4.41298 8.39609 3.28126 7.00004 3.28126ZM5.7361 5.80904C5.7361 6.50706 6.30197 7.07292 6.99999 7.07292C7.69802 7.07292 8.26388 6.50706 8.26388 5.80904C8.26388 5.11101 7.69802 4.54515 6.99999 4.54515C6.30197 4.54515 5.7361 5.11101 5.7361 5.80904Z" fill="#212121"/>
</svg>
