<svg width="14" height="14" viewBox="0 0 14 14" fill="none" xmlns="http://www.w3.org/2000/svg">
<path fill-rule="evenodd" clip-rule="evenodd" d="M6.99998 0.333332C3.31808 0.333332 0.333313 3.3181 0.333313 7C0.333313 10.6819 3.31808 13.6667 6.99998 13.6667C10.6819 13.6667 13.6666 10.6819 13.6666 7C13.6666 5.23189 12.9643 3.5362 11.714 2.28595C10.4638 1.03571 8.76809 0.333332 6.99998 0.333332ZM7.66665 12.2867V11.6667C7.66665 11.2985 7.36817 11 6.99998 11C6.63179 11 6.33331 11.2985 6.33331 11.6667V12.2867C3.91985 11.9806 2.01937 10.0801 1.71331 7.66667H2.33331C2.7015 7.66667 2.99998 7.36819 2.99998 7C2.99998 6.63181 2.7015 6.33333 2.33331 6.33333H1.71331C2.01937 3.91987 3.91985 2.01939 6.33331 1.71333V2.33333C6.33331 2.70152 6.63179 3 6.99998 3C7.36817 3 7.66665 2.70152 7.66665 2.33333V1.71333C10.0801 2.01939 11.9806 3.91987 12.2866 6.33333H11.6666C11.2985 6.33333 11 6.63181 11 7C11 7.36819 11.2985 7.66667 11.6666 7.66667H12.2866C11.9806 10.0801 10.0801 11.9806 7.66665 12.2867ZM9.09331 4.03333L5.75998 5.44667C5.60459 5.51399 5.48064 5.63794 5.41331 5.79333L3.99998 9.12667C3.89256 9.37677 3.94798 9.66706 4.13998 9.86C4.26307 9.98561 4.4308 10.0575 4.60665 10.06C4.69889 10.0601 4.78999 10.0396 4.87331 10L8.20665 8.58667C8.36204 8.51934 8.48598 8.39539 8.55331 8.24L9.96665 4.90667C10.072 4.65678 10.0155 4.36797 9.82378 4.1762C9.63201 3.98444 9.34319 3.92795 9.09331 4.03333ZM7.43331 7.43333L5.91331 8.1L6.57998 6.58L8.09998 5.91333L7.43331 7.43333Z" fill="#3E6AF2"/>
</svg>
