<svg width="12" height="12" viewBox="0 0 12 12" fill="none" xmlns="http://www.w3.org/2000/svg">
<path d="M7.75107 6.3367L11.3982 8.64233V3.93371L7.75107 6.3367Z" fill="#222222"/>
<path d="M0.579987 3.93371V8.64233L4.22707 6.3367L0.579987 3.93371Z" fill="#222222"/>
<path d="M10.722 2.5625H1.2561C0.91871 2.5625 0.65096 2.81402 0.60025 3.13789L5.98905 6.68829L11.3779 3.13789C11.3271 2.81402 11.0594 2.5625 10.722 2.5625Z" fill="#222222"/>
<path d="M7.13173 6.74508L6.175 7.37524C6.1182 7.41243 6.05397 7.43069 5.98906 7.43069C5.92415 7.43069 5.85992 7.41243 5.80312 7.37524L4.84639 6.74441L0.601593 9.42935C0.653656 9.75051 0.920054 10 1.25609 10H10.722C11.0581 10 11.3245 9.75051 11.3765 9.42935L7.13173 6.74508Z" fill="#222222"/>
</svg>
