<svg width="16" height="16" viewBox="0 0 16 16" fill="none" xmlns="http://www.w3.org/2000/svg">
<path fill-rule="evenodd" clip-rule="evenodd" d="M12.6666 2.66666H3.33331C2.22874 2.66666 1.33331 3.56209 1.33331 4.66666V11.3333C1.33331 12.4379 2.22874 13.3333 3.33331 13.3333H12.6666C13.7712 13.3333 14.6666 12.4379 14.6666 11.3333V4.66666C14.6666 3.56209 13.7712 2.66666 12.6666 2.66666ZM12.3933 4L8.47331 7.92C8.34814 8.04621 8.17774 8.1172 7.99998 8.1172C7.82222 8.1172 7.65182 8.04621 7.52665 7.92L3.60665 4H12.3933ZM13.3333 11.3333C13.3333 11.7015 13.0348 12 12.6666 12H3.33331C2.96512 12 2.66665 11.7015 2.66665 11.3333V4.94L6.58665 8.86C7.36749 9.63987 8.63247 9.63987 9.41331 8.86L13.3333 4.94V11.3333Z" fill="#3E6AF2"/>
</svg>
