<svg width="13" height="13" viewBox="0 0 13 13" fill="none" xmlns="http://www.w3.org/2000/svg">
<circle cx="6.96289" cy="6.26407" r="6" fill="#DADADA"/>
<path d="M3.43921 8.35447V5.1083C3.45188 5.11267 3.46418 5.11808 3.47597 5.12447C4.42888 5.75966 5.38173 6.39498 6.33452 7.03041C6.74548 7.30427 7.17703 7.30611 7.58763 7.03189C8.52963 6.40454 9.47127 5.77675 10.4125 5.14855C10.4326 5.13513 10.4533 5.12245 10.4835 5.10315V5.16564C10.4835 6.19746 10.4835 7.22922 10.4835 8.26092C10.4841 8.29069 10.482 8.32045 10.4774 8.34987C10.417 8.68695 10.1573 8.90346 9.81062 8.90364C8.42812 8.90364 7.04556 8.90364 5.66293 8.90364C5.14243 8.90364 4.62192 8.90475 4.10068 8.90364C3.8726 8.90364 3.68421 8.81175 3.55665 8.62244C3.50317 8.54194 3.47744 8.44398 3.43921 8.35447Z" fill="#596977"/>
<path d="M3.43921 4.17207C3.44987 4.1377 3.45979 4.10296 3.47119 4.06877C3.51376 3.94315 3.59344 3.83338 3.69969 3.75397C3.80594 3.67456 3.93377 3.62924 4.06631 3.62399C4.08469 3.62399 4.10307 3.62399 4.12145 3.62399C6.01527 3.62399 7.90902 3.62399 9.80271 3.62399C10.0823 3.62399 10.2938 3.74272 10.4193 3.99526C10.5621 4.28216 10.4721 4.61042 10.2014 4.79421C9.87733 5.01476 9.55036 5.22999 9.22468 5.44723L7.3781 6.67773C7.08109 6.87568 6.84197 6.87568 6.54478 6.67773C5.64897 6.0804 4.75481 5.48068 3.85587 4.88813C3.6605 4.75947 3.49324 4.6185 3.43939 4.3792L3.43921 4.17207Z" fill="#596977"/>
</svg>
