<svg width="12" height="12" viewBox="0 0 12 12" fill="none" xmlns="http://www.w3.org/2000/svg">
<path d="M1.23391 6.28517L1.08068 6.43537C0.829995 6.68149 0.482207 6.66888 0.275255 6.40708C0.0683027 6.14529 0.0961932 5.76731 0.340335 5.52806C1.74917 4.13436 3.15858 2.74295 4.56856 1.35383C4.78688 1.13866 5.00451 0.922342 5.22282 0.707554C5.50174 0.433527 5.77378 0.429705 6.04925 0.702968C7.38555 2.01998 8.72115 3.33788 10.0561 4.65668C10.3481 4.94485 10.6432 5.22996 10.9324 5.52156C11.2644 5.85674 11.1786 6.41779 10.7723 6.57639C10.6815 6.61514 10.5829 6.6255 10.4871 6.60636C10.3914 6.58723 10.3022 6.53932 10.2293 6.46785C10.1738 6.41741 10.1211 6.36313 10.0492 6.29319C10.0461 6.36581 10.0423 6.41511 10.0423 6.46479C10.0423 7.90487 10.0357 9.34533 10.0461 10.7835C10.0488 11.1886 9.81296 11.5096 9.40077 11.4993C8.71415 11.4791 8.02614 11.494 7.33883 11.4936C6.96005 11.4936 6.73829 11.2528 6.73588 10.8305C6.73312 10.2725 6.73588 9.71452 6.73588 9.15653C6.73588 8.67421 6.52927 8.44528 6.09849 8.44413H5.18391C4.74487 8.44413 4.54136 8.67344 4.54102 9.16493C4.54102 9.70382 4.52965 10.2431 4.54446 10.7816C4.55754 11.2639 4.24867 11.51 3.90329 11.4997C3.21218 11.4794 2.52005 11.494 1.8286 11.4936C1.46428 11.4936 1.2346 11.2394 1.23426 10.8324C1.23426 9.37781 1.23426 7.92322 1.23426 6.46862L1.23391 6.28517Z" fill="#222222"/>
</svg>
