<svg width="12" height="16" viewBox="0 0 12 16" fill="none" xmlns="http://www.w3.org/2000/svg">
<path fill-rule="evenodd" clip-rule="evenodd" d="M6.00001 0.861115C2.80903 0.861115 0.222229 3.44791 0.222229 6.63889C0.222229 10.5389 5.3139 14.9444 5.53056 15.1322C5.80084 15.3634 6.19918 15.3634 6.46945 15.1322C6.72223 14.9444 11.7778 10.5389 11.7778 6.63889C11.7778 3.44791 9.19098 0.861115 6.00001 0.861115ZM6.00001 13.6083C4.46167 12.1639 1.66667 9.05112 1.66667 6.63889C1.66667 4.24566 3.60677 2.30556 6.00001 2.30556C8.39324 2.30556 10.3333 4.24566 10.3333 6.63889C10.3333 9.05112 7.53834 12.1711 6.00001 13.6083ZM6.00001 3.75C4.40452 3.75 3.11112 5.0434 3.11112 6.63889C3.11112 8.23438 4.40452 9.52778 6.00001 9.52778C7.5955 9.52778 8.8889 8.23438 8.8889 6.63889C8.8889 5.0434 7.5955 3.75 6.00001 3.75ZM6.00001 8.08334C5.20226 8.08334 4.55556 7.43664 4.55556 6.63889C4.55556 5.84115 5.20226 5.19445 6.00001 5.19445C6.79775 5.19445 7.44445 5.84115 7.44445 6.63889C7.44445 7.43664 6.79775 8.08334 6.00001 8.08334Z" fill="#3E6AF2"/>
</svg>
