<svg width="12" height="12" viewBox="0 0 12 12" fill="none" xmlns="http://www.w3.org/2000/svg">
<path d="M6 12C2.68629 12 0 9.31371 0 6C0 2.68629 2.68629 0 6 0C9.31371 0 12 2.68629 12 6C12 9.31371 9.31371 12 6 12Z" fill="white"/>
<path d="M3.57709 6.14137L3.49277 6.21584C3.35482 6.33787 3.16344 6.33162 3.04956 6.20182C2.93567 6.07202 2.95102 5.88462 3.08537 5.766C3.86063 5.07499 4.63621 4.38513 5.41211 3.6964C5.53224 3.58971 5.652 3.48246 5.77214 3.37597C5.92562 3.24011 6.07532 3.23821 6.22691 3.3737C6.96225 4.02668 7.69722 4.6801 8.4318 5.33396C8.59249 5.47684 8.75488 5.6182 8.91405 5.76278C9.09672 5.92896 9.04954 6.20713 8.82594 6.28577C8.77597 6.30497 8.72169 6.31011 8.66901 6.30062C8.61632 6.29114 8.56725 6.26739 8.52712 6.23195C8.49661 6.20694 8.46762 6.18003 8.42801 6.14535C8.42631 6.18136 8.42422 6.2058 8.42422 6.23043C8.42422 6.94443 8.42062 7.65861 8.42631 8.37166C8.42782 8.57252 8.29803 8.73169 8.07121 8.72657C7.69337 8.71653 7.31477 8.72392 6.93655 8.72373C6.72811 8.72373 6.60608 8.60435 6.60475 8.39497C6.60323 8.11831 6.60475 7.84166 6.60475 7.56501C6.60475 7.32587 6.49106 7.21237 6.25401 7.2118H5.75072C5.50912 7.2118 5.39714 7.32549 5.39695 7.56917C5.39695 7.83635 5.39069 8.10372 5.39884 8.37071C5.40604 8.60985 5.23607 8.73188 5.04601 8.72676C4.66571 8.71672 4.28484 8.72392 3.90434 8.72373C3.70386 8.72373 3.57747 8.59772 3.57728 8.39592C3.57728 7.67472 3.57728 6.95353 3.57728 6.23233L3.57709 6.14137Z" fill="#596977"/>
</svg>
