<svg width="14" height="12" viewBox="0 0 14 12" fill="none" xmlns="http://www.w3.org/2000/svg">
<path fill-rule="evenodd" clip-rule="evenodd" d="M11.6666 0.666664H2.33325C1.22868 0.666664 0.333252 1.56209 0.333252 2.66666V9.33333C0.333252 10.4379 1.22868 11.3333 2.33325 11.3333H11.6666C12.7712 11.3333 13.6666 10.4379 13.6666 9.33333V2.66666C13.6666 1.56209 12.7712 0.666664 11.6666 0.666664ZM11.3933 2L7.47325 5.92C7.34807 6.04621 7.17768 6.1172 6.99992 6.1172C6.82216 6.1172 6.65176 6.04621 6.52659 5.92L2.60659 2H11.3933ZM11.6666 10C12.0348 10 12.3333 9.70152 12.3333 9.33333V2.94L8.41325 6.86C7.6324 7.63987 6.36743 7.63987 5.58659 6.86L1.66659 2.94V9.33333C1.66659 9.70152 1.96506 10 2.33325 10H11.6666Z" fill="#212121"/>
</svg>
