<svg width="12" height="10" viewBox="0 0 12 10" fill="none" xmlns="http://www.w3.org/2000/svg">
<path fill-rule="evenodd" clip-rule="evenodd" d="M10.0833 0.333328H1.91663C0.950128 0.333328 0.166626 1.11683 0.166626 2.08333V7.91666C0.166626 8.88316 0.950128 9.66666 1.91663 9.66666H10.0833C11.0498 9.66666 11.8333 8.88316 11.8333 7.91666V2.08333C11.8333 1.11683 11.0498 0.333328 10.0833 0.333328ZM9.84411 1.5L6.41411 4.93C6.30458 5.04043 6.15548 5.10254 5.99995 5.10254C5.84441 5.10254 5.69531 5.04043 5.58578 4.93L2.15578 1.5H9.84411ZM10.0833 8.5C10.4054 8.5 10.6666 8.23883 10.6666 7.91666V2.3225L7.23661 5.7525C6.55336 6.43489 5.44651 6.43489 4.76327 5.7525L1.33327 2.3225V7.91666C1.33327 8.23883 1.59444 8.5 1.91661 8.5H10.0833Z" fill="#212121"/>
</svg>
