<svg width="14" height="14" viewBox="0 0 14 14" fill="none" xmlns="http://www.w3.org/2000/svg">
<path fill-rule="evenodd" clip-rule="evenodd" d="M6.99996 1.16667C3.78346 1.16667 1.16663 3.7835 1.16663 7C1.16663 10.2165 3.78346 12.8333 6.99996 12.8333C10.2165 12.8333 12.8333 10.2165 12.8333 7C12.8333 3.7835 10.2165 1.16667 6.99996 1.16667ZM11.6264 6.41667H10.0141C9.9421 5.1399 9.5849 3.89549 8.96873 2.77492C10.4202 3.45316 11.4232 4.82751 11.6264 6.41667ZM8.84156 6.41667C8.72489 4.55409 7.91289 3.14476 7.30914 2.34909C7.28476 2.34757 7.26041 2.34588 7.23606 2.34419C7.15786 2.33877 7.0796 2.33334 6.99998 2.33334C6.92548 2.33334 6.85192 2.33831 6.7786 2.34326C6.75146 2.3451 6.72434 2.34693 6.69723 2.34851C5.84731 3.48367 5.34856 4.90234 5.26748 6.41667H8.84156ZM5.06795 2.75742C4.49395 3.86051 4.16262 5.11117 4.10079 6.41667H2.37354C2.57843 4.81304 3.59744 3.42914 5.06795 2.75742ZM4.10837 7.58334H2.37354C2.57586 9.16654 3.57232 10.537 5.01603 11.2175C4.49628 10.1955 4.1877 8.97109 4.10837 7.58334ZM6.67914 11.6509C5.86189 10.6604 5.37948 9.27267 5.27389 7.58334H8.83981C8.71848 9.20092 8.18823 10.6143 7.32139 11.6503L7.25878 11.6546L7.25875 11.6547C7.17337 11.6606 7.08761 11.6667 6.99998 11.6667C6.91742 11.6667 6.83656 11.6613 6.75558 11.6559C6.73013 11.6542 6.70467 11.6525 6.67914 11.6509ZM10.0053 7.58334C9.91603 8.92501 9.57594 10.1541 9.01886 11.2006C10.4445 10.5144 11.4258 9.15288 11.6258 7.58334H10.0053Z" fill="#212121"/>
</svg>
