<svg width="14" height="14" viewBox="0 0 14 14" fill="none" xmlns="http://www.w3.org/2000/svg">
<path fill-rule="evenodd" clip-rule="evenodd" d="M11.96 7.66667C11.8134 7.66667 11.66 7.62 11.5134 7.58667C11.2163 7.52122 10.9245 7.43432 10.64 7.32667C9.99952 7.09366 9.2864 7.3812 8.98669 7.99333L8.84002 8.29333C8.19069 7.93212 7.59401 7.48349 7.06669 6.96C6.5432 6.43268 6.09457 5.836 5.73335 5.18667L6.01335 5C6.62548 4.70029 6.91303 3.98717 6.68002 3.34667C6.57417 3.06162 6.48731 2.76987 6.42002 2.47333C6.38669 2.32667 6.36002 2.17333 6.34002 2.02C6.17276 1.04985 5.32438 0.345689 4.34002 0.360001H2.34002C1.75864 0.354542 1.20367 0.60234 0.819639 1.03886C0.435608 1.47537 0.260535 2.05739 0.340019 2.63333C1.07064 8.37884 5.60522 12.897 11.3534 13.6067H11.6067C12.0983 13.6074 12.573 13.427 12.94 13.1C13.3666 12.7184 13.6093 12.1724 13.6067 11.6V9.6C13.5898 8.64504 12.9001 7.83526 11.96 7.66667ZM12.2934 11.6667C12.2931 11.8582 12.2105 12.0403 12.0667 12.1667C11.9161 12.2967 11.7176 12.3572 11.52 12.3333C6.38404 11.6748 2.3475 7.61905 1.71335 2.48C1.69191 2.28266 1.75213 2.08514 1.88002 1.93333C2.0064 1.78948 2.18853 1.70691 2.38002 1.70667H4.38002C4.69981 1.69955 4.97959 1.92058 5.04669 2.23333C5.07335 2.41556 5.10669 2.59556 5.14669 2.77333C5.2237 3.12476 5.32619 3.47012 5.45335 3.80667L4.52002 4.24C4.35884 4.31395 4.23377 4.44907 4.17247 4.61546C4.11116 4.78186 4.11868 4.96583 4.19335 5.12667C5.15282 7.18184 6.80485 8.83387 8.86002 9.79333C9.02233 9.86001 9.20438 9.86001 9.36669 9.79333C9.53463 9.73326 9.67149 9.6084 9.74669 9.44667L10.16 8.51333C10.5047 8.63659 10.8564 8.73899 11.2134 8.82C11.3911 8.86 11.5711 8.89333 11.7534 8.92C12.0661 8.9871 12.2871 9.26687 12.28 9.58667L12.2934 11.6667Z" fill="#3E6AF2"/>
</svg>
