<svg width="14" height="14" viewBox="0 0 14 14" fill="none" xmlns="http://www.w3.org/2000/svg">
<path fill-rule="evenodd" clip-rule="evenodd" d="M11.0292 7.53242C11.1326 7.55762 11.2381 7.58334 11.3399 7.58334C12.1625 7.73085 12.766 8.43942 12.7808 9.27501V11.025C12.7831 11.5258 12.5707 12.0036 12.1974 12.3375C11.8763 12.6236 11.4609 12.7815 11.0308 12.7808H10.8091C5.7795 12.1598 1.81174 8.20649 1.17245 3.17917C1.1029 2.67522 1.25609 2.16596 1.59212 1.784C1.92814 1.40205 2.41375 1.18523 2.92245 1.19001H4.67245C5.53376 1.17748 6.2761 1.79362 6.42245 2.64251C6.43995 2.77667 6.46328 2.91084 6.49245 3.03917C6.55133 3.29864 6.62733 3.55392 6.71995 3.80334C6.92383 4.36378 6.67223 4.98776 6.13661 5.25001L5.89161 5.41334C6.20768 5.9815 6.60023 6.5036 7.05828 6.96501C7.51969 7.42306 8.04178 7.81561 8.60995 8.13167L8.73828 7.86917C9.00053 7.33356 9.62451 7.08195 10.1849 7.28584C10.4338 7.38004 10.6892 7.45607 10.9491 7.51334C10.9756 7.51936 11.0023 7.52587 11.0292 7.53242ZM11.4333 11.5208C11.5592 11.4103 11.6314 11.2509 11.6316 11.0833L11.62 9.26334C11.6262 8.98352 11.4328 8.73871 11.1591 8.68001C10.9997 8.65667 10.8422 8.62751 10.6866 8.59251C10.3743 8.52163 10.0665 8.43202 9.76497 8.32417L9.4033 9.14084C9.33751 9.28236 9.21775 9.39161 9.0708 9.44417C8.92878 9.50252 8.76949 9.50252 8.62747 9.44417C6.8292 8.60464 5.38367 7.15911 4.54414 5.36084C4.4788 5.2201 4.47222 5.05913 4.52586 4.91354C4.5795 4.76794 4.68894 4.64971 4.82997 4.58501L5.64664 4.20584C5.53537 3.91136 5.44569 3.60917 5.3783 3.30167C5.3433 3.14612 5.31414 2.98862 5.2908 2.82917C5.2321 2.55551 4.98729 2.36211 4.70747 2.36834H2.95747C2.78992 2.36855 2.63055 2.4408 2.51997 2.56667C2.40807 2.69951 2.35538 2.87234 2.37414 3.04501C2.92901 7.54167 6.46099 11.0905 10.955 11.6667C11.1278 11.6876 11.3015 11.6346 11.4333 11.5208Z" fill="#212121"/>
</svg>
